<?xml version="1.0" encoding="iso-8859-1"?>
<!-- Generator: Adobe Illustrator 19.1.0, SVG Export Plug-In . SVG Version: 6.00 Build 0)  -->
<svg version="1.1" id="Capa_1" xmlns="http://www.w3.org/2000/svg" xmlns:xlink="http://www.w3.org/1999/xlink" x="0px" y="0px"
	 viewBox="0 0 25.419 25.419" style="enable-background:new 0 0 25.419 25.419;" xml:space="preserve">
<g>
	<g>
		<path d="M11.147,14.457L11.147,14.457c-2.489-0.106-4.607-2.171-4.66-4.66c0-0.318-0.265-0.53-0.53-0.53
			c-0.265,0-0.53,0.265-0.53,0.53l0,0c0.053,1.165-0.371,2.277-1.218,3.124c-0.794,0.794-1.959,1.218-3.124,1.218l0,0
			c-0.265,0-0.53,0.212-0.53,0.53l0,0c0,0.265,0.212,0.53,0.53,0.53c2.489,0.053,4.607,2.171,4.66,4.66
			c0,0.265,0.265,0.53,0.53,0.53l0,0c0.265,0,0.53-0.265,0.53-0.53l0,0c-0.053-1.165,0.371-2.277,1.218-3.124
			c0.794-0.794,1.906-1.271,3.124-1.218l0,0c0.265,0,0.53-0.212,0.53-0.53C11.677,14.722,11.465,14.457,11.147,14.457z
			 M7.229,15.993c-0.424,0.424-0.794,0.953-1.059,1.536c-0.583-1.218-1.589-2.171-2.754-2.754c0.583-0.265,1.059-0.583,1.536-1.059
			c0.477-0.477,0.794-0.953,1.059-1.536c0.583,1.218,1.589,2.171,2.754,2.754C8.235,15.199,7.705,15.516,7.229,15.993z"/>
		<path d="M24.334,19.488c-2.489-0.053-4.607-2.171-4.66-4.66c0-0.318-0.265-0.53-0.53-0.53s-0.53,0.265-0.53,0.53l0,0
			c0.053,1.165-0.371,2.277-1.218,3.124c-0.794,0.794-1.959,1.218-3.124,1.218l0,0c-0.265,0-0.53,0.212-0.53,0.53l0,0
			c0,0.265,0.212,0.53,0.53,0.53c2.489,0.106,4.554,2.171,4.66,4.607v0.053c0,0.212,0.106,0.371,0.318,0.477
			c0.053,0.053,0.159,0.053,0.212,0.053l0,0c0.318,0,0.53-0.265,0.53-0.53c-0.053-1.165,0.371-2.277,1.218-3.124
			c0.794-0.794,1.906-1.271,3.124-1.218c0.318,0,0.53-0.212,0.53-0.53l0,0C24.81,19.753,24.598,19.488,24.334,19.488z
			 M20.415,21.024c-0.424,0.424-0.794,0.953-1.059,1.536c-0.583-1.218-1.589-2.171-2.754-2.754c0.583-0.265,1.059-0.583,1.536-1.059
			c0.477-0.477,0.794-0.953,1.059-1.536c0.583,1.218,1.589,2.171,2.754,2.754C21.368,20.229,20.838,20.547,20.415,21.024z"/>
		<path d="M15.861,15.357c0.318,0,0.53-0.212,0.53-0.53c0-3.654,2.966-6.62,6.62-6.62c0.318,0,0.53-0.212,0.53-0.53
			s-0.212-0.53-0.53-0.53c-3.654,0-6.62-2.966-6.62-6.62c0-0.318-0.212-0.53-0.53-0.53c-0.318,0-0.53,0.212-0.53,0.53
			c0,3.654-2.966,6.62-6.62,6.62c-0.318,0-0.53,0.212-0.53,0.53s0.212,0.53,0.53,0.53c3.654,0,6.62,2.966,6.62,6.62
			C15.331,15.093,15.596,15.357,15.861,15.357z M11.518,7.679c1.959-0.794,3.548-2.383,4.342-4.342
			c0.794,1.959,2.383,3.548,4.342,4.342c-1.959,0.794-3.548,2.383-4.342,4.342C15.119,10.062,13.53,8.473,11.518,7.679z"/>
	</g>
</g>
<g>
</g>
<g>
</g>
<g>
</g>
<g>
</g>
<g>
</g>
<g>
</g>
<g>
</g>
<g>
</g>
<g>
</g>
<g>
</g>
<g>
</g>
<g>
</g>
<g>
</g>
<g>
</g>
<g>
</g>
</svg>
